HIERARCHY
ROOT SpineBase
{
  OFFSET 0.000000 0.000000 0.000000
  CHANNELS 6 Xposition Yposition Zposition Zrotation Xrotation Yrotation
  JOINT SpineMid
  {
    OFFSET 0.000000 32.302320 0.000000
    CHANNELS 3 Zrotation Xrotation Yrotation
    JOINT SpineShoulder
    {
      OFFSET 0.081774 23.992088 -0.800673
      CHANNELS 3 Zrotation Xrotation Yrotation
      JOINT Neck
      {
        OFFSET 0.100961 7.922043 -0.599147
        CHANNELS 3 Zrotation Xrotation Yrotation
        JOINT Head
        {
          OFFSET 0.513448 13.658827 -2.075512
          CHANNELS 3 Zrotation Xrotation Yrotation
          End Site
          {
            OFFSET 0 0 0
          }
        }
      }
      JOINT ShoulderLeft
      {
        OFFSET -15.199771 -3.211354 -9.294536
        CHANNELS 3 Zrotation Xrotation Yrotation
        JOINT ElbowLeft
        {
          OFFSET -5.526731 -26.425082 -4.772309
          CHANNELS 3 Zrotation Xrotation Yrotation
          JOINT WristLeft
          {
            OFFSET 0.548198 -21.019746 -7.515967
            CHANNELS 3 Zrotation Xrotation Yrotation
            JOINT HandLeft
            {
              OFFSET 0.399970 -8.201889 -1.962936
              CHANNELS 3 Zrotation Xrotation Yrotation
              JOINT HandTipLeft
              {
                OFFSET 0.802767 -7.947573 -2.023772
                CHANNELS 3 Zrotation Xrotation Yrotation
                End Site
                {
                  OFFSET 0 0 0
                }
              }
              JOINT ThumbLeft
              {
                OFFSET -1.761555 -1.311242 -4.981031
                CHANNELS 3 Zrotation Xrotation Yrotation
                End Site
                {
                  OFFSET 0 0 0
                }
              }
            }
          }
        }
      }
      JOINT ShoulderRight
      {
        OFFSET 15.062920 -5.418223 6.588221
        CHANNELS 3 Zrotation Xrotation Yrotation
        JOINT ElbowRight
        {
          OFFSET 4.131619 -29.183257 3.209190
          CHANNELS 3 Zrotation Xrotation Yrotation
          JOINT WristRight
          {
            OFFSET 3.621162 -24.002121 -2.453240
            CHANNELS 3 Zrotation Xrotation Yrotation
            JOINT HandRight
            {
              OFFSET 0.822725 -8.238676 -3.032311
              CHANNELS 3 Zrotation Xrotation Yrotation
              JOINT HandTipRight
              {
                OFFSET 4.567427 -7.863576 -3.897796
                CHANNELS 3 Zrotation Xrotation Yrotation
                End Site
                {
                  OFFSET 0 0 0
                }
              }
              JOINT ThumbRight
              {
                OFFSET -1.964727 -0.647591 -2.902319
                CHANNELS 3 Zrotation Xrotation Yrotation
                End Site
                {
                  OFFSET 0 0 0
                }
              }
            }
          }
        }
      }
    }
  }
  JOINT HipLeft
  {
    OFFSET -5.928988 0.908354 -7.067789
    CHANNELS 3 Zrotation Xrotation Yrotation
    JOINT KneeLeft
    {
      OFFSET -4.103993 -34.393122 -2.865759
      CHANNELS 3 Zrotation Xrotation Yrotation
      JOINT AnkleLeft
      {
        OFFSET -3.520616 -35.616076 6.247781
        CHANNELS 3 Zrotation Xrotation Yrotation
        JOINT FootLeft
        {
          OFFSET 5.585625 -4.493762 -12.776607
          CHANNELS 3 Zrotation Xrotation Yrotation
          End Site
          {
            OFFSET 0 0 0
          }
        }
      }
    }
  }
  JOINT HipRight
  {
    OFFSET 7.135441 -0.030997 -0.756455
    CHANNELS 3 Zrotation Xrotation Yrotation
    JOINT KneeRight
    {
      OFFSET -4.213678 -32.611745 3.113039
      CHANNELS 3 Zrotation Xrotation Yrotation
      JOINT AnkleRight
      {
        OFFSET -6.657272 -34.205930 6.983604
        CHANNELS 3 Zrotation Xrotation Yrotation
        JOINT FootRight
        {
          OFFSET 5.477984 -4.539499 -12.808888
          CHANNELS 3 Zrotation Xrotation Yrotation
          End Site
          {
            OFFSET 0 0 0
          }
        }
      }
    }
  }
}
MOTION
Frames: 13
Frame Time: 0.033333
-63.495817 77.284885 395.322092 -0.000000 0.000000 -25.784864 0.000000 -0.000000 25.784864 -0.000000 0.000000 0.000000 -0.000000 0.000000 0.000000 0.000000 0.000000 0.000000 -0.000000 0.000000 0.000000 -0.000000 0.000000 0.000000 -0.000000 0.000000 0.000000 -0.000000 0.000000 0.000000 0.000000 0.000000 0.000000 0.000000 0.000000 0.000000 -0.000000 0.000000 0.000000 -0.000000 0.000000 0.000000 -0.000000 0.000000 0.000000 -0.000000 0.000000 0.000000 0.000000 0.000000 0.000000 0.000000 0.000000 0.000000 0.000000 -0.000000 25.784864 -0.000000 0.000000 0.000000 -0.000000 0.000000 0.000000 0.000000 0.000000 0.000000 0.000000 -0.000000 25.784864 -0.000000 0.000000 0.000000 -0.000000 0.000000 0.000000 0.000000 0.000000 0.000000
-63.552426 77.296566 394.929248 -0.126588 0.237239 -25.752956 0.217093 -0.158673 25.753518 -0.000000 0.000000 0.000000 -0.000000 0.000000 0.000000 0.000000 0.000000 0.000000 -0.000000 0.000000 0.000000 -0.000000 0.000000 0.000000 3.700688 -4.714327 -0.971642 -3.833267 2.251839 1.061794 0.000000 0.000000 0.000000 0.000000 0.000000 0.000000 -0.765931 0.611486 0.006441 0.041438 -1.559485 -0.081118 0.723183 0.948868 0.063138 -2.324057 0.685004 1.577727 0.000000 0.000000 0.000000 0.000000 0.000000 0.000000 0.232659 -1.996392 26.017615 0.792341 1.658259 -0.275271 -0.000000 0.000000 0.000000 0.000000 0.000000 0.000000 0.217093 -0.158673 25.753518 -0.000000 0.000000 0.000000 -0.000000 0.000000 0.000000 0.000000 0.000000 0.000000
-63.589504 77.306740 394.570285 -0.203005 0.426880 -25.897355 0.369067 -0.295343 25.899063 -0.000000 0.000000 0.000000 0.981591 0.524683 0.125069 0.000000 0.000000 0.000000 -0.000000 0.000000 0.000000 1.141521 -0.662369 -0.419616 5.838717 -8.337178 -1.224365 -7.208445 4.285075 2.261806 0.000000 0.000000 0.000000 0.000000 0.000000 0.000000 -1.421817 1.110316 0.014656 0.157925 -2.791948 -0.155185 0.587317 2.299547 0.437878 -3.702247 0.889587 2.788488 0.000000 0.000000 0.000000 0.000000 0.000000 0.000000 0.405098 -3.743981 26.395715 1.502332 3.104772 -0.536099 -0.000000 0.000000 0.000000 0.000000 0.000000 0.000000 0.120080 -1.424534 25.943993 0.717974 0.906425 -0.054347 -0.000000 0.000000 0.000000 0.000000 0.000000 0.000000
-63.607053 77.315407 394.245204 -0.229395 0.569095 -26.218694 0.457229 -0.409189 26.221466 -0.000000 0.000000 0.000000 1.008170 0.764142 0.117909 0.000000 0.000000 0.000000 -0.000000 0.000000 0.000000 1.655981 -1.206648 -0.608252 7.950311 -11.402453 -1.440329 -9.907437 5.894437 3.398521 0.000000 0.000000 0.000000 0.000000 0.000000 0.000000 -1.967608 1.496559 0.021278 0.323804 -3.729886 -0.214725 0.615662 3.274650 0.663763 -5.002388 1.430365 4.044458 0.000000 0.000000 0.000000 0.000000 0.000000 0.000000 0.529158 -5.240470 26.919585 2.127171 4.339382 -0.775171 -0.000000 0.000000 0.000000 0.000000 0.000000 0.000000 0.098741 -1.947461 26.276247 1.938682 1.182558 0.106051 -0.935791 0.039849 -0.198188 0.000000 0.000000 0.000000
-63.605072 77.322567 393.954004 -0.205871 0.664032 -26.717402 0.482449 -0.500568 26.720702 -0.000000 0.000000 0.000000 0.722822 0.986900 0.066615 0.000000 0.000000 0.000000 0.796431 -0.333346 -0.071943 1.338422 -1.558621 -0.717011 9.321983 -13.448431 -1.512485 -11.771503 6.965193 4.282306 0.000000 0.000000 0.000000 0.000000 0.000000 0.000000 -2.403380 1.770444 0.023591 0.520921 -4.397165 -0.255829 0.489106 4.183563 0.903410 -5.754011 2.045884 5.111301 0.000000 0.000000 0.000000 0.000000 0.000000 0.000000 0.612473 -6.486370 27.590039 2.664617 5.363509 -0.986235 -0.000000 0.000000 0.000000 0.000000 0.000000 0.000000 0.027519 -2.346587 26.777867 2.378871 1.336075 0.142008 -1.140116 0.109918 -0.252637 0.000000 0.000000 0.000000
-63.583561 77.328220 393.696685 -0.132517 0.711807 -27.393646 0.445177 -0.571010 27.396688 -0.000000 0.000000 0.000000 0.126301 1.192860 -0.027009 0.000000 0.000000 0.000000 0.920746 -0.417066 -0.075886 1.654873 -2.304775 -0.873595 9.870641 -14.374462 -1.519425 -12.712097 7.454854 4.774402 0.000000 0.000000 0.000000 0.000000 0.000000 0.000000 -2.729272 1.932233 0.019532 0.736625 -4.810954 -0.276909 0.215053 5.059930 1.162884 -5.830498 2.728611 5.913016 0.000000 0.000000 0.000000 0.000000 0.000000 0.000000 0.658481 -7.484295 28.407729 3.112948 6.179474 -1.164105 -0.000000 0.000000 0.000000 0.000000 0.000000 0.000000 -0.093121 -2.624847 27.449321 2.715391 1.369988 0.182949 -1.289414 0.208676 -0.300980 0.000000 0.000000 0.000000
-63.509021 77.329726 393.464027 0.014295 0.743817 -28.469980 0.342025 -0.660675 28.471860 -0.000000 0.000000 0.000000 -0.812506 1.089185 -0.156872 0.000000 0.000000 0.000000 1.093980 -0.733413 -0.037298 2.024157 -3.056931 -1.111827 8.953740 -14.378821 -1.357666 -12.198058 7.967168 4.668951 0.000000 0.000000 0.000000 0.000000 0.000000 0.000000 -3.038826 1.968490 -0.003332 1.041386 -4.965564 -0.262651 0.559311 6.584866 1.183984 -4.189904 3.226137 5.875091 0.000000 0.000000 0.000000 0.000000 0.000000 0.000000 0.681120 -8.113567 29.573253 3.397746 6.645819 -1.272733 -0.000000 0.000000 0.000000 0.000000 0.000000 0.000000 -0.288484 -2.669587 28.498502 2.817070 1.022052 0.259958 -1.301681 0.448457 -0.347462 0.000000 0.000000 0.000000
-63.430622 77.334890 393.290028 0.223640 0.698995 -29.578088 0.150536 -0.718294 29.577668 -0.000000 0.000000 0.000000 -2.252378 1.209883 -0.364313 0.000000 0.000000 0.000000 1.185859 -0.897185 -0.017300 2.339288 -4.119877 -1.275879 7.409679 -13.376416 -1.173638 -11.074491 7.424995 4.200847 0.000000 0.000000 0.000000 0.000000 0.000000 0.000000 -3.146841 1.931083 -0.019781 1.295997 -4.949089 -0.252899 -0.398990 7.566999 1.677162 -3.122020 3.939344 6.317814 0.000000 0.000000 0.000000 0.000000 0.000000 0.000000 0.623448 -8.615001 30.757681 3.648995 7.023632 -1.365459 0.910176 2.263605 0.195233 0.000000 0.000000 0.000000 -0.617481 -2.655877 29.568812 2.919084 0.593528 0.349511 -1.037766 0.645768 -1.198696 0.000000 0.000000 0.000000
-63.362588 77.337412 393.140114 0.451664 0.566891 -30.713036 -0.098797 -0.718052 30.710183 -0.000000 0.000000 0.000000 -3.865569 1.596217 -0.594247 0.000000 0.000000 0.000000 1.126061 -0.874145 -0.011993 2.653382 -5.410853 -1.362956 5.967046 -10.876914 -1.052925 -9.134204 5.829073 3.204021 0.000000 0.000000 0.000000 0.000000 0.000000 0.000000 -3.067777 1.846633 -0.026670 1.480862 -4.800759 -0.251375 -1.620384 7.805351 2.170250 -1.386131 5.460702 6.661861 0.000000 0.000000 0.000000 0.000000 0.000000 0.000000 0.545372 -8.893666 31.947977 3.797936 7.273600 -1.425171 0.244472 -0.884310 -1.827490 0.000000 0.000000 0.000000 -0.931922 -2.637590 30.682222 2.946933 0.339789 0.396236 -0.797943 0.687680 -1.933906 0.000000 0.000000 0.000000
-63.315253 77.338229 393.026888 0.705491 0.366059 -31.755805 0.225611 -0.127864 31.782831 0.254787 -0.164117 0.057017 -6.836664 2.307682 -0.926433 0.000000 0.000000 0.000000 -0.056874 -0.664741 -0.117989 2.873369 -6.770463 -1.366091 3.593419 -7.486984 -0.661116 -7.249235 2.968722 2.223795 0.000000 0.000000 0.000000 0.000000 0.000000 0.000000 -3.932951 1.592463 -0.134567 1.665729 -4.323856 -0.226154 -3.001197 8.440438 2.732343 0.613548 4.564281 5.706028 0.000000 0.000000 0.000000 0.000000 0.000000 0.000000 0.335759 -9.020566 33.023829 3.940596 7.391059 -1.464314 -0.362041 -3.737466 -4.016559 0.000000 0.000000 0.000000 -1.216708 -2.594135 31.721368 3.025840 0.320020 0.414694 -0.639747 0.509907 -2.840789 0.000000 0.000000 0.000000
-63.288856 77.329870 392.940038 0.977845 0.132130 -32.758293 0.321761 -0.146180 32.799918 0.259635 -0.170516 0.074518 -9.159431 3.356822 -1.150074 0.000000 0.000000 0.000000 -0.472194 -0.007116 -0.212146 2.897196 -8.066114 -1.263977 1.610204 -4.457255 -0.221624 -5.560696 -0.070499 1.322477 0.000000 0.000000 0.000000 0.000000 0.000000 0.000000 -3.936256 1.470613 -0.185229 1.528386 -3.428773 -0.145217 -4.421410 7.522845 3.154267 2.145701 5.783561 5.717443 0.000000 0.000000 0.000000 0.000000 0.000000 0.000000 0.110657 -9.057261 34.049461 4.018732 7.451412 -1.485269 -0.834796 -6.057553 -6.189090 0.000000 0.000000 0.000000 -1.454147 -2.588143 32.738687 3.073266 0.501187 0.393676 -0.465524 0.187501 -3.852824 0.000000 0.000000 0.000000
-63.288790 77.316164 392.879971 1.250680 -0.143213 -33.643636 0.394577 -0.172980 33.700685 0.250720 -0.173381 0.090076 -11.407310 4.674103 -1.301891 0.000000 0.000000 0.000000 -0.902129 0.783995 -0.311741 2.909013 -9.213785 -1.125916 -0.465202 -2.433495 0.362985 -3.102909 -2.422365 0.228293 0.000000 0.000000 0.000000 0.000000 0.000000 0.000000 -3.928419 1.424641 -0.226769 1.501463 -2.618840 -0.081938 -5.299661 8.516958 3.550801 2.013331 3.551808 5.261205 0.000000 0.000000 0.000000 0.000000 0.000000 0.000000 -0.172553 -8.986675 34.943849 4.061238 7.434284 -1.489003 -1.094268 -7.647305 -8.107367 0.000000 0.000000 0.000000 -1.571327 -2.525071 33.665985 2.898057 0.829660 0.316689 -0.203947 -0.245829 -4.872558 0.000000 0.000000 0.000000
-63.311023 77.303897 392.845577 1.501919 -0.408012 -34.355305 0.425317 -0.196093 34.426692 0.228762 -0.165910 0.101802 -13.408626 5.997350 -1.380957 0.000000 0.000000 0.000000 -1.251279 1.528725 -0.404636 2.917271 -9.992098 -0.990063 -1.805635 -1.935664 0.766986 -1.219004 -2.219331 -0.409689 0.000000 0.000000 0.000000 0.000000 0.000000 0.000000 -3.927477 1.367710 -0.266252 1.604622 -1.884698 -0.029696 -6.174863 6.069388 3.443191 1.724545 3.455580 4.488000 0.000000 0.000000 0.000000 0.000000 0.000000 0.000000 -0.448101 -8.844070 35.652851 4.045609 7.362276 -1.475572 -0.047223 -5.675854 -8.057067 0.000000 0.000000 0.000000 -1.678894 -2.373557 34.415394 2.686136 1.067180 0.253510 0.022142 -0.650601 -5.806495 0.000000 0.000000 0.000000
